<?xml version="1.0" encoding="UTF-8"?>
<svg version="1.1" xmlns="http://www.w3.org/2000/svg" width="1024" height="1024">
<path d="M0 0 C1.23169922 0.21430664 2.46339844 0.42861328 3.73242188 0.64941406 C21.51780539 3.82967395 38.84375424 8.35197799 56 14 C57.07894531 14.35513672 58.15789062 14.71027344 59.26953125 15.07617188 C98.31412068 28.19234832 134.77806956 48.41445161 167 74 C167.93328125 74.73863281 168.8665625 75.47726563 169.828125 76.23828125 C175.84682296 81.07903404 181.56162169 86.18603639 187.21875 91.4375 C189.50787222 93.5465789 191.82475164 95.59978712 194.1875 97.625 C201.37621414 103.87411043 207.81855983 110.77003151 214 118 C214.84949219 118.96035156 215.69898438 119.92070312 216.57421875 120.91015625 C229.75458417 135.88784422 241.64038799 151.94839461 252 169 C252.46438477 169.7626416 252.92876953 170.5252832 253.40722656 171.31103516 C277.69609863 211.60362989 293.93429387 255.6434153 302 302 C302.21172852 303.19044922 302.42345703 304.38089844 302.64160156 305.60742188 C309.11997196 343.73843243 308.76946078 384.93852645 302 423 C301.78569336 424.23169922 301.57138672 425.46339844 301.35058594 426.73242188 C298.17032605 444.51780539 293.64802201 461.84375424 288 479 C287.64486328 480.07894531 287.28972656 481.15789062 286.92382812 482.26953125 C273.80765168 521.31412068 253.58554839 557.77806956 228 590 C227.26136719 590.93328125 226.52273438 591.8665625 225.76171875 592.828125 C220.92096596 598.84682296 215.81396361 604.56162169 210.5625 610.21875 C208.4534211 612.50787222 206.40021288 614.82475164 204.375 617.1875 C198.12588957 624.37621414 191.22996849 630.81855983 184 637 C182.55947266 638.27423828 182.55947266 638.27423828 181.08984375 639.57421875 C166.11215578 652.75458417 150.05160539 664.64038799 133 675 C132.2373584 675.46438477 131.4747168 675.92876953 130.68896484 676.40722656 C90.39637011 700.69609863 46.3565847 716.93429387 0 725 C-1.19044922 725.21172852 -2.38089844 725.42345703 -3.60742188 725.64160156 C-41.73843243 732.11997196 -82.93852645 731.76946078 -121 725 C-122.23169922 724.78569336 -123.46339844 724.57138672 -124.73242188 724.35058594 C-142.51780539 721.17032605 -159.84375424 716.64802201 -177 711 C-178.07894531 710.64486328 -179.15789062 710.28972656 -180.26953125 709.92382812 C-219.31412068 696.80765168 -255.77806956 676.58554839 -288 651 C-288.93328125 650.26136719 -289.8665625 649.52273438 -290.828125 648.76171875 C-296.84682296 643.92096596 -302.56162169 638.81396361 -308.21875 633.5625 C-310.50787222 631.4534211 -312.82475164 629.40021288 -315.1875 627.375 C-322.37621414 621.12588957 -328.81855983 614.22996849 -335 607 C-336.27423828 605.55947266 -336.27423828 605.55947266 -337.57421875 604.08984375 C-350.75458417 589.11215578 -362.64038799 573.05160539 -373 556 C-373.46438477 555.2373584 -373.92876953 554.4747168 -374.40722656 553.68896484 C-398.69609863 513.39637011 -414.93429387 469.3565847 -423 423 C-423.21172852 421.80955078 -423.42345703 420.61910156 -423.64160156 419.39257812 C-430.11997196 381.26156757 -429.76946078 340.06147355 -423 302 C-422.78569336 300.76830078 -422.57138672 299.53660156 -422.35058594 298.26757812 C-419.17032605 280.48219461 -414.64802201 263.15624576 -409 246 C-408.46729492 244.38158203 -408.46729492 244.38158203 -407.92382812 242.73046875 C-394.80765168 203.68587932 -374.58554839 167.22193044 -349 135 C-347.89205078 133.60007812 -347.89205078 133.60007812 -346.76171875 132.171875 C-341.92096596 126.15317704 -336.81396361 120.43837831 -331.5625 114.78125 C-329.4534211 112.49212778 -327.40021288 110.17524836 -325.375 107.8125 C-319.12588957 100.62378586 -312.22996849 94.18144017 -305 88 C-304.03964844 87.15050781 -303.07929688 86.30101562 -302.08984375 85.42578125 C-287.11215578 72.24541583 -271.05160539 60.35961201 -254 50 C-252.8560376 49.30342285 -252.8560376 49.30342285 -251.68896484 48.59277344 C-211.39637011 24.30390137 -167.3565847 8.06570613 -121 0 C-119.80955078 -0.21172852 -118.61910156 -0.42345703 -117.39257812 -0.64160156 C-79.26156757 -7.11997196 -38.06147355 -6.76946078 0 0 Z " fill="#412E18" transform="translate(571,151)"/>
<path d="M0 0 C1.30711483 0.36989155 2.61449029 0.73886329 3.92211914 1.10693359 C6.45355059 1.81996266 8.98387766 2.53651338 11.51367188 3.25537109 C16.34719222 4.62114823 21.19853866 5.90769132 26.05859375 7.17578125 C29.16734078 8.01362254 32.25668225 8.89284139 35.34765625 9.79296875 C36.82407593 10.21521729 36.82407593 10.21521729 38.33032227 10.64599609 C40.27024974 11.20153161 42.2071706 11.76771374 44.14038086 12.34619141 C49.36474835 13.82862278 53.44502565 14.73985778 58.8125 13.1875 C61.7054994 11.38776289 61.7054994 11.38776289 64.3125 9.125 C67.70495321 6.54115892 69.46237601 5.2609131 73.6875 4.375 C80.11995427 6.04743811 84.37039385 13.14098305 88.4375 18.125 C89.05359131 18.87644287 89.66968262 19.62788574 90.30444336 20.40209961 C94.49498597 25.52953673 98.61599065 30.70711104 102.68457031 35.93164062 C106.8107252 41.22064858 111.04623557 46.41806245 115.31079102 51.59594727 C117.84846989 54.69410486 120.28148273 57.81007962 122.5703125 61.09765625 C124.46227773 64.20457715 124.46227773 64.20457715 126.8125 65.1875 C127.07135986 64.63731201 127.33021973 64.08712402 127.59692383 63.52026367 C130.15520562 58.61076728 133.42926908 54.09917408 136.5 49.5 C137.19544922 48.44876953 137.89089844 47.39753906 138.60742188 46.31445312 C140.64823259 43.2522843 142.72240381 40.2161925 144.8125 37.1875 C145.72056396 35.83084229 145.72056396 35.83084229 146.64697266 34.44677734 C147.51201416 33.22595459 147.51201416 33.22595459 148.39453125 31.98046875 C148.88800049 31.26785889 149.38146973 30.55524902 149.88989258 29.82104492 C152.79663349 27.3513302 155.0437869 27.24733667 158.8125 27.1875 C162.01538086 28.47583008 162.01538086 28.47583008 165.27734375 30.45703125 C165.86792068 30.80875397 166.45849762 31.16047668 167.06697083 31.52285767 C168.9727775 32.66403062 170.86099096 33.83127198 172.75 35 C174.06382696 35.79397602 175.37861141 36.58636975 176.69433594 37.37719727 C180.41610235 39.62213417 184.1172954 41.89917195 187.8125 44.1875 C188.68342285 44.72536133 189.5543457 45.26322266 190.45166016 45.81738281 C193.72009851 47.84230773 196.97538384 49.88666433 200.22265625 51.9453125 C204.09628969 54.38699171 208.04367336 56.69553463 212 59 C221.20069639 64.36556202 230.24445182 69.97544132 239.28076172 75.61230469 C241.71505213 77.12686994 244.15522395 78.63142153 246.59765625 80.1328125 C248.04430715 81.02598284 249.49092381 81.91920865 250.9375 82.8125 C251.59435791 83.21404297 252.25121582 83.61558594 252.92797852 84.02929688 C254.57571727 85.05113673 256.19609336 86.11678563 257.8125 87.1875 C258.44929688 87.60773438 259.08609375 88.02796875 259.7421875 88.4609375 C261.75933616 91.71487803 261.64731225 94.60209744 260.8125 98.1875 C258.61042648 102.79190555 255.87981506 107.0278409 253.125 111.3125 C252.340069 112.56207724 251.55713168 113.81290888 250.77612305 115.06494141 C249.59107837 116.96385462 248.40472397 118.86179699 247.21150208 120.75558472 C243.72675024 126.28766724 240.41175694 131.91076782 237.125 137.5625 C232.60440137 145.25279574 227.98292379 152.87592195 223.25 160.4375 C222.66581299 161.38544434 222.08162598 162.33338867 221.47973633 163.31005859 C220.92825928 164.18227051 220.37678223 165.05448242 219.80859375 165.953125 C219.32575928 166.72430664 218.8429248 167.49548828 218.34545898 168.29003906 C216.62853454 170.41520816 215.37152597 171.26733828 212.8125 172.1875 C207.38084555 171.97200846 203.76969374 170.30201296 199.375 167.3125 C189.71091491 161.01388597 179.78011309 155.18512493 169.84667969 149.32568359 C168.45886165 148.50639275 167.07116519 147.68689592 165.68359375 146.8671875 C165.00587921 146.46688324 164.32816467 146.06657898 163.62991333 145.65414429 C159.54726574 143.23565879 155.49848379 140.77028389 151.47265625 138.2578125 C150.55387695 137.68853027 149.63509766 137.11924805 148.68847656 136.53271484 C147.03044622 135.50094625 145.37947353 134.45771027 143.73730469 133.40087891 C143.01575195 132.95405762 142.29419922 132.50723633 141.55078125 132.046875 C140.94274658 131.65983398 140.33471191 131.27279297 139.70825195 130.87402344 C137.04753883 129.91047865 135.48965273 130.34724847 132.8125 131.1875 C130.68995101 132.40059572 130.68995101 132.40059572 128.6875 134.00390625 C127.90818115 134.59598877 127.1288623 135.18807129 126.32592773 135.7980957 C125.08178101 136.76428833 125.08178101 136.76428833 123.8125 137.75 C122.94761963 138.4102417 122.08273926 139.0704834 121.19165039 139.75073242 C119.35032811 141.15755753 117.51194832 142.56824084 115.67626953 143.98242188 C111.8125325 146.95746645 107.93276005 149.91123849 104.05273438 152.86499023 C102.21002016 154.26869544 100.36882744 155.67440064 98.52929688 157.08227539 C97.69333984 157.72156982 96.85738281 158.36086426 95.99609375 159.01953125 C95.25931396 159.58389893 94.52253418 160.1482666 93.76342773 160.72973633 C91.03512104 162.7683697 89.03389102 164.13436616 85.6875 164.9375 C79.37792419 163.71629178 76.65313087 159.08652255 72.8125 154.1875 C72.05195313 153.22199219 71.29140625 152.25648438 70.5078125 151.26171875 C68.8628669 149.13946927 67.22952984 147.01199063 65.609375 144.87109375 C62.40254682 140.63449673 59.13959388 136.44215589 55.875 132.25 C55.28267578 131.48864746 54.69035156 130.72729492 54.08007812 129.94287109 C49.82902174 124.48238219 45.56135107 119.0351365 41.27563477 113.60180664 C39.08556874 110.82261498 36.92018115 108.02978011 34.8125 105.1875 C32.76162869 110.36864857 31.02241197 115.61571944 29.375 120.9375 C29.15956543 121.62803467 28.94413086 122.31856934 28.72216797 123.0300293 C27.71006729 126.27671181 26.71195649 129.5254583 25.7421875 132.78515625 C25.41476562 133.84605469 25.08734375 134.90695312 24.75 136 C24.33041016 137.40185547 24.33041016 137.40185547 23.90234375 138.83203125 C22.55107928 141.75250607 21.74400276 142.81561447 18.8125 144.1875 C11.95182923 144.00475183 5.62186227 141.76000054 -0.875 139.6875 C-3.19529342 138.95957458 -5.51560666 138.23171238 -7.8359375 137.50390625 C-9.03959961 137.12379395 -10.24326172 136.74368164 -11.48339844 136.35205078 C-15.18528546 135.18819624 -18.89224649 134.04228227 -22.6015625 132.90234375 C-28.66639344 131.03829954 -34.72497114 129.15530025 -40.77880859 127.25585938 C-43.00457349 126.55825537 -45.23141956 125.86408902 -47.45947266 125.17382812 C-50.41517587 124.25499498 -53.36447473 123.31812978 -56.3125 122.375 C-57.60957886 121.97655884 -57.60957886 121.97655884 -58.93286133 121.57006836 C-62.20743428 120.50421646 -64.64913814 119.66547526 -67.2421875 117.36328125 C-69.7526719 111.58501756 -67.39644326 106.15296985 -65.35546875 100.62109375 C-65.05178375 99.77422501 -64.74809875 98.92735626 -64.43521118 98.05482483 C-63.42403359 95.24158827 -62.39953874 92.4333953 -61.375 89.625 C-60.66079185 87.64616176 -59.94751286 85.66698795 -59.23510742 83.6875 C-57.70644464 79.44352333 -56.17267037 75.20143927 -54.63574219 70.96044922 C-52.09435847 63.9402381 -49.58044594 56.91034121 -47.0703125 49.87890625 C-45.38041287 45.14836442 -43.69026298 40.41791202 -42 35.6875 C-41.59526459 34.55456512 -41.19052917 33.42163025 -40.77352905 32.25436401 C-38.56492108 26.07644864 -36.34553664 19.90266357 -34.10748291 13.73535156 C-33.28401823 11.45480291 -32.47488432 9.16976485 -31.66943359 6.8828125 C-31.03448975 5.13097656 -31.03448975 5.13097656 -30.38671875 3.34375 C-30.04858154 2.39306641 -29.71044434 1.44238281 -29.36206055 0.46289062 C-23.96178987 -9.99866056 -8.52900943 -2.45774585 0 0 Z " fill="#EBE7DC" transform="translate(421.1875,570.8125)"/>
<path d="M0 0 C4.7031093 2.03088811 7.71789119 5.43578239 10 10 C10.15495763 12.24974161 10.25010928 14.50371536 10.31640625 16.7578125 C10.33718735 17.42086395 10.35796844 18.08391541 10.37937927 18.76705933 C10.44479231 20.88626694 10.50372105 23.005599 10.5625 25.125 C10.60569309 26.56121081 10.64930764 27.99740902 10.69335938 29.43359375 C10.80046499 32.95559594 10.90175575 36.47773825 11 40 C11.38671875 39.57412598 11.7734375 39.14825195 12.171875 38.70947266 C12.69265625 38.1582373 13.2134375 37.60700195 13.75 37.0390625 C14.26046875 36.48943848 14.7709375 35.93981445 15.296875 35.37353516 C17.80372585 33.35181169 19.91007118 33.28747226 23.04296875 33.5390625 C27.18710909 34.51512749 29.96656123 36.89528959 32.8125 39.9375 C34.16475137 42.28614712 34.62894487 44.32840307 35 47 C35.474375 46.484375 35.94875 45.96875 36.4375 45.4375 C40.34504957 43.24546 43.7564818 43.88408377 48 45 C52.52621518 47.7550875 55.17545974 51.22654639 56.6875 56.3125 C56.790625 56.869375 56.89375 57.42625 57 58 C57.99 57.34 58.98 56.68 60 56 C64.71218117 55.53650677 67.04345429 55.53075116 71.3125 57.625 C74.83066424 60.73407537 76.70133642 63.2872197 77.22631836 68.05566406 C77.38841694 75.47341926 75.71697295 82.02796983 73.6875 89.125 C73.37876953 90.25292969 73.07003906 91.38085938 72.75195312 92.54296875 C71.51719325 96.98810429 70.28347264 101.305868 68.53718567 105.58195496 C66.77928469 110.257259 66.0693142 114.88966793 65.421875 119.82495117 C65.28970581 120.77393784 65.15753662 121.7229245 65.0213623 122.70066833 C64.73744568 124.74729265 64.45771005 126.79450054 64.1817627 128.84221458 C63.7444365 132.08421226 63.29518476 135.32436041 62.84277344 138.56428528 C61.72217423 146.60566833 60.61992243 154.64953825 59.52099609 162.69390869 C58.59025224 169.50514257 57.65069199 176.31503426 56.69836426 183.12328529 C56.25583584 186.31339912 55.82651121 189.50511709 55.39746094 192.69706726 C55.12503931 194.65255195 54.85196261 196.60794552 54.578125 198.56323242 C54.46271362 199.44906006 54.34730225 200.3348877 54.22839355 201.24755859 C53.51983508 206.18813971 52.67933464 210.32066536 49 214 C37.51354408 215.11854562 26.13659217 212.63309234 14.875 210.6875 C12.10203976 210.21893683 9.32859662 209.75334119 6.55499268 209.28860474 C4.72862952 208.98022534 2.90304939 208.66717034 1.07830811 208.34933472 C-3.4150142 207.57124899 -7.8981706 206.86669859 -12.42480469 206.31103516 C-13.28886932 206.19782425 -14.15293396 206.08461334 -15.04318237 205.9679718 C-16.6654695 205.7590479 -18.29055404 205.57038966 -19.91799927 205.40641785 C-23.81561277 204.88732363 -26.293361 204.21325892 -29.03051758 201.28955078 C-31.28080948 197.53097471 -31.47744341 196.01274951 -30.95703125 191.72265625 C-30.81990723 190.49305176 -30.6827832 189.26344727 -30.54150391 187.99658203 C-30.36248016 186.66418866 -30.18194106 185.33199814 -30 184 C-29.82975763 182.62241269 -29.66100177 181.24464095 -29.49365234 179.86669922 C-28.93541612 175.3840351 -28.31280386 170.91121253 -27.6875 166.4375 C-27.46479993 164.81703779 -27.24255703 163.19651269 -27.02075195 161.57592773 C-26.05342852 154.52457653 -25.06892416 147.47567297 -24.07414246 140.42814636 C-23.78839101 138.40219165 -23.50401838 136.37604772 -23.2199707 134.34985352 C-22.87360501 131.88622627 -22.52338778 129.42313641 -22.16870117 126.96069336 C-22.01377197 125.86120361 -21.85884277 124.76171387 -21.69921875 123.62890625 C-21.49558716 122.2068689 -21.49558716 122.2068689 -21.2878418 120.75610352 C-20.71317748 115.25365614 -20.4774929 111.97349661 -24 107.5625 C-28.30698317 101.75066729 -31.64630694 95.6002699 -34.90136719 89.16699219 C-35.6701599 87.65059128 -36.44758485 86.13855001 -37.23144531 84.62988281 C-38.51002614 82.15978596 -39.75800266 79.67616384 -41 77.1875 C-41.59723877 76.04196655 -41.59723877 76.04196655 -42.20654297 74.87329102 C-44.901686 69.34676041 -46.07622939 64.14928745 -45 58 C-42.5625 54.9375 -42.5625 54.9375 -40 53 C-39.505 52.505 -39.505 52.505 -39 52 C-34.88440463 51.19157948 -31.36506999 51.28730388 -27.61328125 53.24609375 C-23.48268183 56.28268042 -20.67314859 59.37284319 -17.86010742 63.65063477 C-17.32342941 64.46419937 -16.7867514 65.27776398 -16.23381042 66.11598206 C-15.82665298 66.73770798 -15.41949554 67.3594339 -15 68 C-14.99413376 67.24689041 -14.98826752 66.49378082 -14.98222351 65.71784973 C-14.92425608 58.61129697 -14.85215643 51.50505976 -14.76428509 44.39882374 C-14.71960782 40.74564138 -14.68034623 37.09256985 -14.65356445 33.43920898 C-14.62750455 29.91173821 -14.58708408 26.38469454 -14.53681374 22.85748863 C-14.51207424 20.86072321 -14.50210702 18.86379245 -14.49235535 16.86689758 C-14.47256119 15.64600937 -14.45276703 14.42512115 -14.43237305 13.16723633 C-14.42126999 12.09468094 -14.41016693 11.02212555 -14.39872742 9.91706848 C-13.9409735 6.56816526 -13.00399079 4.7028582 -11 2 C-7.28671335 -0.47552443 -4.30393027 -0.54010105 0 0 Z " fill="#EEC79F" transform="translate(730,546)"/>
<path d="M0 0 C14.97392893 1.22543703 29.95332413 2.27937542 44.95005417 3.1809063 C46.676274 3.2856205 48.40249064 3.3903873 50.12870407 3.49520683 C57.10165921 3.91724441 64.07485832 4.33482144 71.04868698 4.74218559 C75.41885443 4.99783069 79.78846668 5.26161539 84.15782928 5.53065109 C85.79466811 5.62983288 87.43169704 5.72593159 89.06890869 5.8187561 C91.32491429 5.94684215 93.58006551 6.08527089 95.83530807 6.22607231 C97.10999954 6.30140694 98.38469101 6.37674156 99.69800949 6.45435905 C104.26373332 7.01535381 107.04916774 7.90650817 110.35898972 11.119627 C112.39633426 14.45429939 112.34751987 15.94497675 111.86802292 19.7824688 C111.73992233 20.93021782 111.61182175 22.07796684 111.47983932 23.26049614 C111.3333696 24.44981743 111.18689987 25.63913872 111.03599167 26.86450005 C110.82492439 29.17249618 110.62056494 31.48111497 110.42271042 33.7902813 C109.18621459 47.02034031 107.83575084 60.2337027 106.2317009 73.42465019 C106.06051489 74.83502786 105.89168481 76.24569361 105.72529221 77.65664482 C105.49163269 79.62661351 105.24647859 81.59520849 105.00083542 83.5637188 C104.86282516 84.6860894 104.72481491 85.80846001 104.58262253 86.96484184 C104.06898277 89.68949544 103.54128787 91.55259721 102.03599167 93.86450005 C93.79545304 99.35819246 77.43233224 95.36051797 67.66489792 94.62231255 C65.89449883 94.49214047 64.12406647 94.36242022 62.35360336 94.23312187 C57.70754648 93.89274894 53.06191218 93.54692713 48.41636276 93.19970512 C41.06586785 92.65137935 33.71469423 92.11219396 26.36363983 91.57143211 C23.67723571 91.37322286 20.9909593 91.17335084 18.30469894 90.97320366 C10.19512507 90.37135578 2.08579688 89.79080108 -6.03090286 89.29321098 C-6.73022588 89.24967176 -7.42954889 89.20613255 -8.15006351 89.16127396 C-11.35318621 88.9621861 -14.55636676 88.77019515 -17.760746 88.59231377 C-23.717663 88.22866201 -29.2920873 87.79251141 -34.96400833 85.86450005 C-41.69451711 75.76873688 -35.73354688 54.08960057 -34.51039505 42.81933403 C-34.08748027 38.91288543 -33.67919929 35.0050991 -33.27260208 31.09692192 C-33.00653699 28.59357495 -32.73963928 26.0903163 -32.47182083 23.5871563 C-32.35090073 22.42869698 -32.22998062 21.27023766 -32.10539627 20.07667351 C-30.40675221 4.6132805 -30.40675221 4.6132805 -26.90150833 0.36450005 C-19.4009544 -3.46557005 -8.25792612 -0.6784805 0 0 Z " fill="#EFEBE0" transform="translate(483.9640083312988,329.13549995422363)"/>
<path d="M0 0 C4.48402226 3.88966361 7.59566688 8.52459384 10.875 13.4375 C12.03117599 15.14848751 13.18742905 16.85942295 14.34375 18.5703125 C14.94316406 19.46137695 15.54257812 20.35244141 16.16015625 21.27050781 C19.21196731 25.79800883 22.29567535 30.30368996 25.375 34.8125 C26.64864412 36.68084875 27.92208041 38.54933919 29.1953125 40.41796875 C31.66806565 44.04639669 34.14198455 47.67402407 36.6171875 51.30078125 C43.82118226 61.85777398 51.01007551 72.42493135 58.1875 83 C58.80570618 83.91063202 58.80570618 83.91063202 59.43640137 84.83966064 C60.6180457 86.58041151 61.79932244 88.32141118 62.98046875 90.0625 C63.66004639 91.06410156 64.33962402 92.06570313 65.03979492 93.09765625 C65.6866626 94.05542969 66.33353027 95.01320313 67 96 C67.73130127 97.04929687 68.46260254 98.09859375 69.21606445 99.1796875 C71.3385853 102.53528635 71.74572192 104.10567443 71 108 C67.81127802 111.58624362 64.50616613 114.14750306 60.40625 116.609375 C59.30716309 117.27348389 58.20807617 117.93759277 57.07568359 118.62182617 C55.88393797 119.33146758 54.6920395 120.04085236 53.5 120.75 C52.26225359 121.49343224 51.02479106 122.23733729 49.78759766 122.98168945 C37.28121492 130.48954314 24.6872907 137.8512763 12.07983398 145.18774414 C8.36798866 147.3718922 4.69759976 149.6200854 1.04077148 151.89501953 C-1.89519829 153.48470719 -3.75786929 153.82938227 -7 153 C-10.9445802 149.47851834 -13.90018435 145.50043274 -16.8125 141.125 C-17.78552618 139.68556736 -18.75954385 138.24680462 -19.734375 136.80859375 C-20.25837891 136.03370605 -20.78238281 135.25881836 -21.32226562 134.46044922 C-23.70724732 130.96279999 -26.14005453 127.49933386 -28.56982422 124.03271484 C-35.82688799 113.67081565 -42.92603634 103.21299291 -49.89624023 92.65600586 C-54.12376658 86.2620595 -58.42366569 79.92783902 -62.80859375 73.640625 C-64.2700961 71.53194197 -65.73030314 69.42236814 -67.19009399 67.3125 C-68.13912954 65.94837872 -69.09394856 64.58826114 -70.05477905 63.23242188 C-71.39767184 61.33667012 -72.7199399 59.42796184 -74.0390625 57.515625 C-74.44124496 56.95941467 -74.84342743 56.40320435 -75.25779724 55.83013916 C-78.00227489 51.79311483 -78.71874391 48.82877413 -78 44 C-75.50346353 40.6641076 -72.29017025 38.79276469 -68.72265625 36.70703125 C-67.13710938 35.77395142 -67.13710938 35.77395142 -65.51953125 34.82202148 C-64.37871094 34.15887939 -63.23789062 33.4957373 -62.0625 32.8125 C-60.86685017 32.11133337 -59.67154377 31.40958082 -58.4765625 30.70727539 C-55.30789694 28.84703053 -52.1350128 26.99411459 -48.96075439 25.14343262 C-43.76062516 22.11092768 -38.56508795 19.07056518 -33.36959839 16.03012085 C-31.55118967 14.967416 -29.73096663 13.90788031 -27.91040039 12.84887695 C-21.59702394 9.16349887 -15.39376388 5.38066915 -9.31005859 1.32543945 C-5.96093161 -0.59618498 -3.74478673 -0.89874882 0 0 Z " fill="#F0ECE2" transform="translate(400,398)"/>
<path d="M0 0 C4.80080757 1.65552762 9.01153982 4.54802868 13.29443359 7.2265625 C14.95587265 8.24474447 16.61732024 9.26291271 18.27915955 10.28044128 C20.03119115 11.35568991 21.77982424 12.43629051 23.52783203 13.51806641 C28.87561092 16.82392289 34.25700539 20.07441866 39.63433838 23.33187866 C41.42407193 24.41687441 43.21271726 25.50364083 45.00097656 26.59106445 C51.79360199 30.72152167 58.59809089 34.83120999 65.41943359 38.9140625 C67.78772388 40.33464282 70.1556615 41.75580876 72.5234375 43.17724609 C74.38940046 44.2962596 76.25639191 45.41355871 78.12402344 46.52978516 C81.28845642 48.42300661 84.44803947 50.32411685 87.60693359 52.2265625 C88.59346924 52.8146167 89.58000488 53.4026709 90.59643555 54.00854492 C91.97835083 54.84349487 91.97835083 54.84349487 93.38818359 55.6953125 C94.20351563 56.18451172 95.01884766 56.67371094 95.85888672 57.17773438 C99.67620096 59.80773454 101.85420257 61.53994302 102.83740234 66.15625 C102.47300775 72.81990476 97.9242582 78.40038762 94.41943359 83.8515625 C93.6345026 85.10113974 92.85156527 86.35197138 92.07055664 87.60400391 C90.88551196 89.50291712 89.69915757 91.40085949 88.50593567 93.29464722 C85.02118384 98.82672974 81.70619053 104.44983032 78.41943359 110.1015625 C73.89883497 117.79185824 69.27735739 125.41498445 64.54443359 132.9765625 C63.66815308 134.398479 63.66815308 134.398479 62.77416992 135.84912109 C62.22269287 136.72133301 61.67121582 137.59354492 61.10302734 138.4921875 C60.62019287 139.26336914 60.1373584 140.03455078 59.63989258 140.82910156 C57.92296813 142.95427066 56.66595956 143.80640078 54.10693359 144.7265625 C48.67527914 144.51107096 45.06412733 142.84107546 40.66943359 139.8515625 C32.37132341 134.4432292 23.88291602 129.38867867 15.35693359 124.3515625 C13.25650609 123.10836114 11.15640561 121.86460872 9.05633545 120.62080383 C7.68212254 119.80691193 6.30781511 118.9931796 4.93341064 118.17961121 C-0.95681294 114.69203531 -6.83548616 111.18544686 -12.70556641 107.6640625 C-13.9126123 106.94114014 -13.9126123 106.94114014 -15.14404297 106.20361328 C-15.87204102 105.76645996 -16.60003906 105.32930664 -17.35009766 104.87890625 C-17.96860596 104.50757568 -18.58711426 104.13624512 -19.22436523 103.75366211 C-20.80387143 102.78146276 -22.34984045 101.75537981 -23.89306641 100.7265625 C-23.23306641 100.7265625 -22.57306641 100.7265625 -21.89306641 100.7265625 C-21.89306641 100.0665625 -21.89306641 99.4065625 -21.89306641 98.7265625 C-19.67366483 97.02343883 -17.45270133 95.42339738 -15.14306641 93.8515625 C-7.57054583 88.95384906 -7.57054583 88.95384906 -2.64306641 81.6640625 C-3.04592591 75.31902527 -6.95061253 71.513364 -10.89306641 66.7265625 C-11.60333984 65.84871094 -12.31361328 64.97085938 -13.04541016 64.06640625 C-14.50599281 62.27303261 -15.97365136 60.4854023 -17.44775391 58.703125 C-20.27724488 55.25892033 -23.06360064 51.78357884 -25.83056641 48.2890625 C-26.30341064 47.69762451 -26.77625488 47.10618652 -27.26342773 46.49682617 C-29.49042424 43.67456203 -31.35575634 40.96975694 -32.89306641 37.7265625 C-32.45027344 37.09266602 -32.00748047 36.45876953 -31.55126953 35.80566406 C-29.49723145 32.86353771 -27.44499421 29.920161 -25.39306641 26.9765625 C-24.65926758 25.92500977 -23.92546875 24.87345703 -23.16943359 23.79003906 C-18.81928842 17.54214064 -14.54406075 11.26878722 -10.47119141 4.8359375 C-7.4558597 0.80554364 -5.24003453 -1.04439596 0 0 Z " fill="#E3DED3" transform="translate(579.89306640625,598.2734375)"/>
<path d="M0 0 C0.66 0 1.32 0 2 0 C2 0.66 2 1.32 2 2 C2.99 2.33 3.98 2.66 5 3 C5.763125 3.78375 6.52625 4.5675 7.3125 5.375 C16.06744735 13.92634392 29.97023829 15.49219216 41.65039062 15.49804688 C42.94138672 15.47806641 44.23238281 15.45808594 45.5625 15.4375 C46.90169978 15.44318766 48.24089414 15.45034448 49.58007812 15.45898438 C57.76062205 15.43913651 57.76062205 15.43913651 65 12 C67.8125 11.8125 67.8125 11.8125 70 12 C70 11.34 70 10.68 70 10 C71.051875 9.7525 72.10375 9.505 73.1875 9.25 C76.82738728 8.23318938 79.12611204 6.46333254 82 4 C82.66 4 83.32 4 84 4 C84.33 3.34 84.66 2.68 85 2 C84.46331157 13.4451092 83.24309422 24.67587364 81.6015625 36.01171875 C81.36332492 37.68077861 81.12532309 39.34987214 80.88754272 41.01899719 C80.39267214 44.48101051 79.89280707 47.94225818 79.38964844 51.40307617 C78.74667618 55.83065143 78.11996247 60.26036567 77.4972477 64.69082928 C77.01249982 68.12262145 76.51755906 71.55288599 76.01969528 74.98279762 C75.78412934 76.61651879 75.55210971 78.25075555 75.32378006 79.88550377 C75.00462476 82.16192773 74.67134845 84.43585712 74.33447266 86.7097168 C74.14873688 88.0004863 73.9630011 89.2912558 73.77163696 90.62113953 C72.92898097 94.31097964 71.71037886 97.28962114 69 100 C57.51354408 101.11854562 46.13659217 98.63309234 34.875 96.6875 C32.10203976 96.21893683 29.32859662 95.75334119 26.55499268 95.28860474 C24.72862952 94.98022534 22.90304939 94.66717034 21.07830811 94.34933472 C16.5849858 93.57124899 12.1018294 92.86669859 7.57519531 92.31103516 C6.71113068 92.19782425 5.84706604 92.08461334 4.95681763 91.9679718 C3.3345305 91.7590479 1.70944596 91.57038966 0.08200073 91.40641785 C-3.81561277 90.88732363 -6.293361 90.21325892 -9.03051758 87.28955078 C-11.28080948 83.53097471 -11.47744341 82.01274951 -10.95703125 77.72265625 C-10.81990723 76.49305176 -10.6827832 75.26344727 -10.54150391 73.99658203 C-10.36248016 72.66418866 -10.18194106 71.33199814 -10 70 C-9.82975763 68.62241269 -9.66100177 67.24464095 -9.49365234 65.86669922 C-8.93537686 61.3840415 -8.31346143 56.91112229 -7.6875 52.4375 C-7.46413784 50.81849319 -7.24116147 49.19943311 -7.01855469 47.58032227 C-6.56789914 44.30713029 -6.11474227 41.03429919 -5.65966797 37.76171875 C-5.03583566 33.26948827 -4.42455234 28.77562668 -3.81640625 24.28125 C-3.63398045 22.93821747 -3.45144762 21.59519948 -3.26879883 20.25219727 C-2.93030211 17.7632508 -2.59285099 15.27416185 -2.2565918 12.78491211 C-2.10488525 11.67897705 -1.95317871 10.57304199 -1.796875 9.43359375 C-1.66635742 8.47509521 -1.53583984 7.51659668 -1.40136719 6.52905273 C-1.048355 4.30468946 -0.58893931 2.17211292 0 0 Z " fill="#E8E3D8" transform="translate(710,660)"/>
<path d="M0 0 C3.05566461 2.96306871 5.97135828 6.01720161 8.8125 9.1875 C9.41707031 9.86167969 10.02164062 10.53585937 10.64453125 11.23046875 C12 13 12 13 12 15 C12.66 15 13.32 15 14 15 C15.88769292 17.23628097 17.67537167 19.48060919 19.4375 21.8125 C20.41354514 23.09123456 21.39135562 24.36862397 22.37109375 25.64453125 C23.0196936 26.50075073 23.0196936 26.50075073 23.68139648 27.37426758 C24.98861308 29.05689296 24.98861308 29.05689296 26.66430664 30.5847168 C28 32 28 32 28 34 C36.86681509 29.05544664 44.89260905 23.07513828 53 17 C53.99 17.66 54.98 18.32 56 19 C56 19.66 56 20.32 56 21 C54.51879883 22.26513672 54.51879883 22.26513672 52.45703125 23.6796875 C51.71259766 24.19660156 50.96816406 24.71351563 50.20117188 25.24609375 C49.41291016 25.78363281 48.62464844 26.32117188 47.8125 26.875 C46.27634156 27.93344278 44.74116115 28.99330664 43.20703125 30.0546875 C42.47822754 30.55709961 41.74942383 31.05951172 40.99853516 31.57714844 C39.30857753 32.78030909 37.68275567 34.0727891 36.07421875 35.3828125 C34 37 34 37 32 37 C35.93011915 41.98866127 39.91075659 46.92314707 44.04272461 51.74584961 C48.21783528 56.62253673 52.32480801 61.54405269 56.25 66.625 C57.37148438 68.06746094 57.37148438 68.06746094 58.515625 69.5390625 C59.00546875 70.35117187 59.4953125 71.16328125 60 72 C59.505 73.485 59.505 73.485 59 75 C54.33851591 74.15375372 52.32673508 71.33632402 49.4375 67.8125 C48.91808838 67.19262207 48.39867676 66.57274414 47.86352539 65.93408203 C41.36558623 58.12947603 35.06150744 50.1482559 29 42 C23.30362332 43.81098681 19.05049913 47.61089365 14.43945312 51.27539062 C13.79814453 51.76587891 13.15683594 52.25636719 12.49609375 52.76171875 C11.92044678 53.21506592 11.3447998 53.66841309 10.75170898 54.13549805 C9 55 9 55 6.78149414 54.63989258 C6.19360107 54.42872803 5.60570801 54.21756348 5 54 C6.40423391 50.63238022 7.92157703 49.03891726 10.9140625 46.984375 C11.67460937 46.45585938 12.43515625 45.92734375 13.21875 45.3828125 C14.0128125 44.84398437 14.806875 44.30515625 15.625 43.75 C16.82769531 42.91855469 16.82769531 42.91855469 18.0546875 42.0703125 C20.03118609 40.70558728 22.01292422 39.34925682 24 38 C22.52735434 33.32064662 19.77785574 30.14714612 16.5625 26.5625 C15.48358359 25.3286504 14.40681802 24.09291728 13.33203125 22.85546875 C12.78240723 22.22302246 12.2327832 21.59057617 11.66650391 20.93896484 C8.96738668 17.79856212 6.34166338 14.60440029 3.75 11.375 C3.27248291 10.79564697 2.79496582 10.21629395 2.30297852 9.61938477 C-0.27566855 6.37614286 -1 5.29611375 -1 1 C-0.67 0.67 -0.34 0.34 0 0 Z " fill="#DEDBD1" transform="translate(471,618)"/>
<path d="M0 0 C0.66 0 1.32 0 2 0 C1.85593859 2.87509799 1.70976346 5.75006554 1.5625 8.625 C1.52318359 9.41390625 1.48386719 10.2028125 1.44335938 11.015625 C1.06493408 18.35125379 0.54028246 25.67469788 0 33 C1.09876465 33.05534912 2.1975293 33.11069824 3.32958984 33.16772461 C7.44853305 33.37586679 11.56730483 33.58725097 15.68603516 33.79956055 C17.46073034 33.89059948 19.23546946 33.98078654 21.01025391 34.07006836 C39.15955016 34.98417191 39.15955016 34.98417191 48 36 C48 36.99 48 37.98 48 39 C39.03978008 39.14019816 30.18483422 38.71390208 21.25 38.0625 C19.98800781 37.97548828 18.72601562 37.88847656 17.42578125 37.79882812 C11.25460679 37.36173025 5.12789453 36.85451796 -1 36 C-1.06058594 37.17175781 -1.12117187 38.34351563 -1.18359375 39.55078125 C-1.6333235 48.05130701 -2.12318755 56.53036486 -3 65 C-3.99 65 -4.98 65 -6 65 C-5.34 55.43 -4.68 45.86 -4 36 C-6.26875 35.87625 -8.5375 35.7525 -10.875 35.625 C-18.90142395 35.16214152 -26.91996111 34.59598034 -34.9375 34 C-36.0929834 33.9170166 -37.2484668 33.8340332 -38.43896484 33.74853516 C-39.52000488 33.66651855 -40.60104492 33.58450195 -41.71484375 33.5 C-43.17071899 33.39171875 -43.17071899 33.39171875 -44.65600586 33.28125 C-47 33 -47 33 -49 32 C-49 31.34 -49 30.68 -49 30 C-23.78469603 30.90438929 -23.78469603 30.90438929 -13.0625 31.5 C-11.75410156 31.5721875 -10.44570313 31.644375 -9.09765625 31.71875 C-6 32 -6 32 -3 33 C-2.95101562 32.37738281 -2.90203125 31.75476563 -2.8515625 31.11328125 C-2.0117823 20.73186051 -1.00085222 10.36690596 0 0 Z " fill="#E0DDD3" transform="translate(522,343)"/>
<path d="M0 0 C0.66 0 1.32 0 2 0 C3.55859375 2.0625 3.55859375 2.0625 5.4375 5 C6.14648438 6.09054687 6.85546875 7.18109375 7.5859375 8.3046875 C7.97233398 8.89991211 8.35873047 9.49513672 8.75683594 10.10839844 C10.97414593 13.48226289 13.27003301 16.80194558 15.5625 20.125 C16.02946289 20.80304688 16.49642578 21.48109375 16.97753906 22.1796875 C20.62577166 27.47129121 24.29890957 32.7452095 28 38 C30.10630459 36.81616457 32.21047102 35.62889389 34.3125 34.4375 C34.94389893 34.07978516 35.57529785 33.72207031 36.22583008 33.35351562 C41.20997657 30.50579066 46.02679051 27.45127114 50.79296875 24.25 C53 23 53 23 56 23 C54.76401656 26.70795033 53.70776146 27.06830716 50.4140625 29.03125 C49.01800781 29.87623047 49.01800781 29.87623047 47.59375 30.73828125 C46.6140625 31.31964844 45.634375 31.90101563 44.625 32.5 C42.69825464 33.65246971 40.77367938 34.80857724 38.8515625 35.96875 C37.99385254 36.47857422 37.13614258 36.98839844 36.25244141 37.51367188 C34.21463362 38.8583688 32.64005257 40.20403872 31 42 C34.90419466 47.91242258 38.84924867 53.79201221 42.87109375 59.625 C43.54970459 60.61161621 44.22831543 61.59823242 44.92749023 62.61474609 C46.3046993 64.61509805 47.68570172 66.61284384 49.07055664 68.60791016 C49.70727295 69.53394043 50.34398926 70.4599707 51 71.4140625 C51.5775 72.2488916 52.155 73.0837207 52.75 73.94384766 C54 76 54 76 54 78 C53.01 78 52.02 78 51 78 C49.62475586 76.47802734 49.62475586 76.47802734 48.21484375 74.3359375 C47.68850342 73.54952881 47.16216309 72.76312012 46.61987305 71.95288086 C46.06468994 71.10218018 45.50950684 70.25147949 44.9375 69.375 C43.77743549 67.63318548 42.61596225 65.89230841 41.453125 64.15234375 C40.87498047 63.28335449 40.29683594 62.41436523 39.70117188 61.51904297 C36.87373969 57.33226838 33.8993402 53.25296697 30.89624023 49.19091797 C28 45.21321253 28 45.21321253 28 43 C27.31897217 43.41886475 26.63794434 43.83772949 25.9362793 44.26928711 C22.85527107 46.16183511 19.77142973 48.04971672 16.6875 49.9375 C15.61564453 50.59685547 14.54378906 51.25621094 13.43945312 51.93554688 C12.41142578 52.56396484 11.38339844 53.19238281 10.32421875 53.83984375 C9.37635498 54.42113037 8.42849121 55.00241699 7.4519043 55.60131836 C5 57 5 57 2 58 C2.22265625 56.18188477 2.22265625 56.18188477 3 54 C4.93359375 52.49194336 4.93359375 52.49194336 7.4375 51.08984375 C8.33210938 50.57486328 9.22671875 50.05988281 10.1484375 49.52929688 C11.08945312 49.00400391 12.03046875 48.47871094 13 47.9375 C14.85877054 46.89225986 16.7131896 45.83923164 18.5625 44.77734375 C19.38878906 44.31577881 20.21507812 43.85421387 21.06640625 43.37866211 C23.30397404 42.06950742 23.30397404 42.06950742 24 39 C22.53477396 36.17331655 22.53477396 36.17331655 20.37109375 33.1171875 C19.98438004 32.54348419 19.59766632 31.96978088 19.19923401 31.37869263 C17.95490795 29.53741151 16.6965807 27.70621505 15.4375 25.875 C14.61558358 24.66470906 13.79460923 23.45377778 12.97460938 22.2421875 C10.02591655 17.89194863 7.07543352 13.54333284 4.07080078 9.23144531 C3.52278809 8.43577148 2.97477539 7.64009766 2.41015625 6.8203125 C1.93843994 6.14500488 1.46672363 5.46969727 0.98071289 4.77392578 C0 3 0 3 0 0 Z " fill="#E0DDD3" transform="translate(369,435)"/>
<path d="M0 0 C0.64686768 0.20858643 1.29373535 0.41717285 1.96020508 0.63208008 C9.26913448 2.82716251 16.0812016 3.52447462 23.6875 3.6875 C25.33008789 3.73874023 25.33008789 3.73874023 27.00585938 3.79101562 C29.67047023 3.87246661 32.33479462 3.94194221 35 4 C34.67 4.66 34.34 5.32 34 6 C27.57142857 7.28571429 27.57142857 7.28571429 25 6 C23.515 13.92 23.515 13.92 22 22 C30.25 22.99 38.5 23.98 47 25 C47 25.99 47 26.98 47 28 C38.42 27.01 29.84 26.02 21 25 C20.67 28.63 20.34 32.26 20 36 C19.52169243 40.83566451 19.01159002 45.66775366 18.5 50.5 C18.36980469 51.76070312 18.23960937 53.02140625 18.10546875 54.3203125 C17.97785156 55.52429688 17.85023438 56.72828125 17.71875 57.96875 C17.60466797 59.05607422 17.49058594 60.14339844 17.37304688 61.26367188 C17 64 17 64 16 67 C15.34 67 14.68 67 14 67 C14.63973127 52.59501647 16.32991648 38.3158994 18 24 C16.31390625 24.04640625 16.31390625 24.04640625 14.59375 24.09375 C9.78798899 24.09375 5.21833259 23.35298847 0.5 22.5 C-0.73363281 22.28537109 -0.73363281 22.28537109 -1.9921875 22.06640625 C-3.99584627 21.71693088 -5.99808298 21.35931844 -8 21 C-8 20.34 -8 19.68 -8 19 C0.1768001 18.65368847 11.54206865 18.27103432 19 22 C19 16.72 19 11.44 19 6 C17.164375 5.731875 15.32875 5.46375 13.4375 5.1875 C8.50227055 4.37566936 4.45971903 3.22985951 0 1 C0 0.67 0 0.34 0 0 Z " fill="#DCD6CA" transform="translate(729,672)"/>
<path d="M0 0 C0.69262695 1.71679688 0.69262695 1.71679688 1 4 C-0.23364258 6.17382812 -0.23364258 6.17382812 -2.08203125 8.53125 C-6.04693078 13.90044628 -8.89136608 19.45713215 -11.6875 25.5 C-12.37682617 26.95212891 -12.37682617 26.95212891 -13.08007812 28.43359375 C-15.95270719 34.53946723 -18.55186283 40.71363249 -21 47 C-21.6044801 48.50951086 -22.20992592 50.01863541 -22.81640625 51.52734375 C-25.69959318 58.78131938 -28.52683979 65.91917424 -30.296875 73.54296875 C-31 76 -31 76 -32.4453125 79.26953125 C-34.19428219 83.24168575 -35.18019528 87.2748333 -36.125 91.5 C-36.29386719 92.22058594 -36.46273437 92.94117188 -36.63671875 93.68359375 C-37.40104545 97.01172497 -38.03600204 100.26744372 -38.4921875 103.65625 C-39 107 -39 107 -39.96923828 109.80541992 C-41.01682759 113.05215276 -41.55384341 116.07824157 -42 119.45703125 C-42.165 120.65134766 -42.33 121.84566406 -42.5 123.07617188 C-42.83590122 125.58624624 -43.16919593 128.09667067 -43.5 130.60742188 C-43.665 131.79529297 -43.83 132.98316406 -44 134.20703125 C-44.144375 135.2947583 -44.28875 136.38248535 -44.4375 137.50317383 C-44.623125 138.32712646 -44.80875 139.1510791 -45 140 C-45.66 140.33 -46.32 140.66 -47 141 C-46.51858347 131.03660352 -45.20974502 121.53406822 -43.25 111.75 C-43.11616913 111.07335297 -42.98233826 110.39670593 -42.8444519 109.69955444 C-39.31973656 91.91898646 -34.31162694 74.98852047 -28 58 C-27.55382324 56.79802979 -27.55382324 56.79802979 -27.09863281 55.57177734 C-19.8823342 36.36862164 -11.51995393 17.04275538 0 0 Z " fill="#8C724F" transform="translate(207,337)"/>
<path d="M0 0 C0.86560547 0.03915527 1.73121094 0.07831055 2.62304688 0.11865234 C8.36828981 0.43078981 8.36828981 0.43078981 9.5 1.5625 C12.02084652 1.86814886 14.53568052 2.13009669 17.0625 2.375 C25.80192769 3.31928114 34.04529121 5.21300924 42.5 7.5625 C44.16794176 8.01962974 45.83591162 8.47665697 47.50390625 8.93359375 C51.84052432 10.12722384 56.17141575 11.34007574 60.5 12.5625 C60.5 12.8925 60.5 13.2225 60.5 13.5625 C54.86538308 13.16002736 49.66001005 12.16387038 44.1875 10.75 C20.44099496 4.63659201 -2.74747932 2.19444719 -27.25 2.375 C-29.17675656 2.38186988 -31.10351446 2.38837676 -33.03027344 2.39453125 C-46.8691979 2.4581091 -60.68074582 2.79170495 -74.5 3.5625 C-63.18156541 -7.75593459 -15.76342026 -0.72132965 0 0 Z " fill="#7F6645" transform="translate(542.5,207.4375)"/>
<path d="M0 0 C-4.49137497 2.14259205 -8.80429026 2.58619031 -13.6875 3.0625 C-19.00524033 3.40718902 -19.00524033 3.40718902 -24 5 C-25.4538493 5.20207944 -26.91348362 5.36404499 -28.375 5.5 C-31.35901587 5.77943961 -34.10001148 6.2612371 -37 7 C-38.61617782 7.36646091 -40.23346332 7.7280557 -41.8515625 8.0859375 C-42.78613281 8.29476562 -43.72070312 8.50359375 -44.68359375 8.71875 C-46.62054626 9.15089877 -48.55803578 9.5806487 -50.49609375 10.0078125 C-56.75687706 11.41242052 -62.88661043 13.05197701 -69 15 C-69.72654785 15.23130615 -70.4530957 15.4626123 -71.20166016 15.70092773 C-77.53331625 17.76714442 -83.7653772 20.09756325 -90 22.4375 C-91.02867187 22.81970703 -92.05734375 23.20191406 -93.1171875 23.59570312 C-100.37974811 26.31685338 -107.53579198 29.13959199 -114.375 32.8125 C-117 34 -117 34 -120 33 C-99.77465993 22.9111806 -78.8300681 14.88090152 -57 9 C-56.06140137 8.74621582 -55.12280273 8.49243164 -54.15576172 8.23095703 C-41.76859694 4.94033021 -29.3730499 2.40632993 -16.6875 0.5625 C-15.48287109 0.38638184 -14.27824219 0.21026367 -13.03710938 0.02880859 C-3.78381425 -1.22950136 -3.78381425 -1.22950136 0 0 Z " fill="#856C49" transform="translate(474,168)"/>
<path d="M0 0 C0 0.33 0 0.66 0 1 C-0.65669678 1.11480713 -1.31339355 1.22961426 -1.98999023 1.34790039 C-34.86653835 7.17711598 -65.96222789 16.47682717 -95.78417969 31.56665039 C-96.95754883 32.15567139 -98.13091797 32.74469238 -99.33984375 33.3515625 C-100.38519287 33.88604004 -101.43054199 34.42051758 -102.50756836 34.97119141 C-103.74132202 35.48045166 -103.74132202 35.48045166 -105 36 C-105.66 35.67 -106.32 35.34 -107 35 C-106.26394531 34.60167969 -105.52789062 34.20335937 -104.76953125 33.79296875 C-103.79371094 33.26316406 -102.81789063 32.73335937 -101.8125 32.1875 C-100.84957031 31.66542969 -99.88664062 31.14335937 -98.89453125 30.60546875 C-97.05634774 29.58590948 -95.23461369 28.53563453 -93.4375 27.4453125 C-84.83950497 22.34714237 -75.22634631 19.10222467 -65.87011719 15.68457031 C-64.20519453 15.07511298 -62.54374536 14.45618561 -60.8828125 13.8359375 C-45.15696565 8 -45.15696565 8 -39 8 C-38.67 7.34 -38.34 6.68 -38 6 C-36.06640625 5.4375 -36.06640625 5.4375 -33.5625 5 C-32.65628906 4.835 -31.75007813 4.67 -30.81640625 4.5 C-29.88699219 4.335 -28.95757812 4.17 -28 4 C-26.33244985 3.67111492 -24.66574661 3.33790106 -23 3 C-22.17757812 2.83757812 -21.35515625 2.67515625 -20.5078125 2.5078125 C-18.81179723 2.16438262 -17.11903835 1.80452827 -15.4296875 1.4296875 C-10.15596193 0.28462782 -5.39731366 -0.19990051 0 0 Z " fill="#8D7350" transform="translate(468,211)"/>
<path d="M0 0 C0.66 0.33 1.32 0.66 2 1 C1.46826172 1.66128906 1.46826172 1.66128906 0.92578125 2.3359375 C-21.37340687 30.5203835 -38.72885951 60.61948605 -52 94 C-53.20963046 90.37110863 -52.68301064 89.6532115 -51.1875 86.25 C-49.47045969 82.19802253 -48.10992195 78.25470081 -47 74 C-46.34 74 -45.68 74 -45 74 C-44.90074219 73.31164062 -44.80148438 72.62328125 -44.69921875 71.9140625 C-43.85956396 68.41471909 -42.45072566 65.57912348 -40.8125 62.375 C-40.49788818 61.75963379 -40.18327637 61.14426758 -39.85913086 60.51025391 C-38.91351043 58.66954784 -37.9578547 56.83436294 -37 55 C-36.49984375 54.030625 -35.9996875 53.06125 -35.484375 52.0625 C-32.22395596 45.89994973 -28.51524001 40.1595872 -24.5390625 34.43359375 C-22.82183223 32.19818214 -22.82183223 32.19818214 -23 30 C-22.401875 29.4225 -21.80375 28.845 -21.1875 28.25 C-18.72207845 25.71413784 -17.45569573 23.2025306 -16 20 C-15.34 20 -14.68 20 -14 20 C-12.79371992 17.66785852 -11.8345262 15.50357861 -11 13 C-10.34 12.67 -9.68 12.34 -9 12 C-8.67 11.01 -8.34 10.02 -8 9 C-6.68945377 7.64426252 -5.35251497 6.31387169 -4 5 C-2.64843325 3.34808509 -1.31037934 1.68477344 0 0 Z " fill="#967C57" transform="translate(272,318)"/>
<path d="M0 0 C0.33 0 0.66 0 1 0 C1.75392455 20.34593717 2.14998543 40.63890054 2 61 C-0.70706297 58.34654223 -1.01034737 56.88493156 -1.35644531 53.03613281 C-1.36273324 51.42511482 -1.35220389 49.81397531 -1.328125 48.203125 C-1.32625183 47.33669373 -1.32437866 46.47026245 -1.32244873 45.57757568 C-1.3157268 43.73836433 -1.30180947 41.89916731 -1.28125 40.06005859 C-1.25057401 37.3016161 -1.24031918 34.54375116 -1.234375 31.78515625 C-1.18694214 21.15588459 -0.80839983 10.59943779 0 0 Z " fill="#362210" transform="translate(714,555)"/>
<path d="M0 0 C5.01040833 0.50104083 8.57496766 1.63998275 13 4 C13.57621094 4.13019531 14.15242187 4.26039063 14.74609375 4.39453125 C17.97008619 5.26059508 20.87852445 6.74455273 23.875 8.1875 C31.17244845 11.65227393 38.55395389 14.86784193 46 18 C46 18.66 46 19.32 46 20 C46.51175781 20.08378906 47.02351562 20.16757813 47.55078125 20.25390625 C51.03582828 21.3155394 54.05159625 23.12400397 57.1875 24.9375 C58.14946289 25.47793945 58.14946289 25.47793945 59.13085938 26.02929688 C63.87467617 28.74935233 63.87467617 28.74935233 65 31 C61.47307567 29.66425277 58.24380747 28.10197231 54.96484375 26.2421875 C42.94508756 19.51947722 31.02907205 13.61834979 18.12695312 8.80371094 C15.05554504 7.64311918 12.02952963 6.39096287 9 5.125 C8.113125 4.75632813 7.22625 4.38765625 6.3125 4.0078125 C4.16761678 3.07304921 2.08062005 2.06920753 0 1 C0 0.67 0 0.34 0 0 Z " fill="#7A6140" transform="translate(611,223)"/>
<path d="M0 0 C0.33 0 0.66 0 1 0 C1.38063221 2.3260857 1.71269945 4.66055264 2 7 C1.67 7.33 1.34 7.66 1 8 C0.87727151 9.59513893 0.82218957 11.19554932 0.79467773 12.79516602 C0.77473251 13.81614883 0.75478729 14.83713165 0.73423767 15.88905334 C0.71752518 16.9994548 0.70081268 18.10985626 0.68359375 19.25390625 C0.66281265 20.38448959 0.64203156 21.51507294 0.62062073 22.67991638 C0.55500203 26.30737985 0.49618323 29.93491833 0.4375 33.5625 C0.39432649 36.01498186 0.3507126 38.467456 0.30664062 40.91992188 C0.19930816 46.94653427 0.0975651 52.97322201 0 59 C-0.33 59 -0.66 59 -1 59 C-2.10206632 51.01439243 -2.15604336 43.11323883 -2.125 35.0625 C-2.12378143 34.37967957 -2.12256287 33.69685913 -2.12130737 32.99334717 C-2.10391624 24.69741127 -2.01300408 16.41062234 -1.5625 8.125 C-1.52334473 7.39547119 -1.48418945 6.66594238 -1.44384766 5.91430664 C-1.13447743 1.13447743 -1.13447743 1.13447743 0 0 Z " fill="#836947" transform="translate(160,479)"/>
<path d="M0 0 C0.99 0.33 1.98 0.66 3 1 C1.93265625 1.63164062 0.8653125 2.26328125 -0.234375 2.9140625 C-9.95505834 8.72993135 -19.33300183 14.88321355 -28.53613281 21.49072266 C-29.33760742 22.0635498 -30.13908203 22.63637695 -30.96484375 23.2265625 C-31.6724585 23.73783691 -32.38007324 24.24911133 -33.10913086 24.77587891 C-35 26 -35 26 -38 27 C-38 26.34 -38 25.68 -38 25 C-35.98828125 23.37890625 -35.98828125 23.37890625 -33.3125 21.5625 C-32.44238281 20.96566406 -31.57226562 20.36882812 -30.67578125 19.75390625 C-28.90804009 18.59519708 -27.11324094 17.4766458 -25.29296875 16.40234375 C-22.91460416 15.07080794 -22.91460416 15.07080794 -21 13 C-17.16854999 9.52774843 -13.05623186 7.45532985 -8.4375 5.2421875 C-6.3217043 4.16394546 -4.47936905 3.01473006 -2.5625 1.625 C-1.716875 1.08875 -0.87125 0.5525 0 0 Z " fill="#947955" transform="translate(358,247)"/>
<path d="M0 0 C0.66 0.33 1.32 0.66 2 1 C-0.49565251 3.52516805 -2.99732451 6.04429373 -5.5 8.5625 C-6.19609375 9.26697266 -6.8921875 9.97144531 -7.609375 10.69726562 C-13.41829007 16.53307382 -19.36394387 22.11003323 -26 27 C-24.57491971 23.75260449 -22.84083976 21.59468519 -20.33203125 19.1015625 C-19.23858398 18.01101563 -19.23858398 18.01101563 -18.12304688 16.8984375 C-17.36056641 16.14820313 -16.59808594 15.39796875 -15.8125 14.625 C-15.06935547 13.8825 -14.32621094 13.14 -13.56054688 12.375 C-9.19428689 8.04318028 -4.72232661 3.94048446 0 0 Z " fill="#241508" transform="translate(308,284)"/>
<path d="M0 0 C0.66 0.33 1.32 0.66 2 1 C1.69924561 1.53367187 1.39849121 2.06734375 1.08862305 2.6171875 C-1.20560132 6.71392181 -3.45015232 10.82831435 -5.60546875 15 C-6.24452148 16.23556641 -6.24452148 16.23556641 -6.89648438 17.49609375 C-7.77235306 19.19482847 -8.64463392 20.89541695 -9.51367188 22.59765625 C-9.93583984 23.41105469 -10.35800781 24.22445313 -10.79296875 25.0625 C-11.1696167 25.79597656 -11.54626465 26.52945312 -11.93432617 27.28515625 C-13 29 -13 29 -15 30 C-14.40472691 26.12572445 -13.24082578 23.22730644 -11.34765625 19.8046875 C-10.81849609 18.84175781 -10.28933594 17.87882812 -9.74414062 16.88671875 C-9.18919922 15.89285156 -8.63425781 14.89898437 -8.0625 13.875 C-7.51142578 12.87339844 -6.96035156 11.87179687 -6.39257812 10.83984375 C-4.35299715 7.14728524 -2.3408713 3.51130695 0 0 Z " fill="#291A0A" transform="translate(246,357)"/>
<path d="M0 0 C0.66 0.33 1.32 0.66 2 1 C1.56244385 1.40726318 1.1248877 1.81452637 0.67407227 2.23413086 C-11.3447646 13.42932467 -11.3447646 13.42932467 -23 25 C-23 21.25983417 -22.0658409 20.54723807 -19.625 17.8125 C-18.99851562 17.09707031 -18.37203125 16.38164062 -17.7265625 15.64453125 C-16 14 -16 14 -14 14 C-14 13.34 -14 12.68 -14 12 C-12.3603279 10.63360658 -10.68889872 9.3050581 -9 8 C-8.34 7.34 -7.68 6.68 -7 6 C-4.80144119 3.80144119 -2.45250495 1.90750385 0 0 Z " fill="#967C57" transform="translate(306,284)"/>
<path d="M0 0 C2 2 2 2 2 6 C1.34 6 0.68 6 0 6 C-0.33 12.27 -0.66 18.54 -1 25 C-1.66 25.33 -2.32 25.66 -3 26 C-3.6728972 7.34579439 -3.6728972 7.34579439 0 0 Z " fill="#35220F" transform="translate(206,464)"/>
<path d="M0 0 C0.66 0 1.32 0 2 0 C2.98326758 6.75910508 2.86194809 12.79450158 2.0625 19.5625 C1.96259766 20.47580078 1.86269531 21.38910156 1.75976562 22.33007812 C1.51519458 24.55451004 1.26182353 26.77754442 1 29 C0.67 29 0.34 29 0 29 C0 19.43 0 9.86 0 0 Z " fill="#33210F" transform="translate(202,491)"/>
<path d="M0 0 C0.66 0.66 1.32 1.32 2 2 C1.13375 2.7425 1.13375 2.7425 0.25 3.5 C-1.77715659 5.75239621 -2.70654562 7.30697327 -3.9375 10 C-5.65675569 13.67139861 -7.57932391 15.71954927 -11 18 C-9.51971645 13.81490516 -7.42574276 10.41688407 -4.9375 6.75 C-4.22464844 5.69296875 -3.51179687 4.6359375 -2.77734375 3.546875 C-1 1 -1 1 0 0 Z " fill="#261709" transform="translate(259,338)"/>
<path d="M0 0 C4.20626034 1.50223584 5.73900021 4.28550034 8 8 C9.60875 7.690625 9.60875 7.690625 11.25 7.375 C15.04830539 6.99516946 15.8842665 7.19397748 19 9 C18.31292969 9.12117187 17.62585938 9.24234375 16.91796875 9.3671875 C16.01691406 9.53476562 15.11585938 9.70234375 14.1875 9.875 C13.29417969 10.03742187 12.40085937 10.19984375 11.48046875 10.3671875 C8.77272154 10.91188449 8.77272154 10.91188449 6 13 C5.62875 11.1746875 5.62875 11.1746875 5.25 9.3125 C4.2950075 5.41640742 2.77218915 2.95700176 0 0 Z " fill="#37220F" transform="translate(758,581)"/>
<path d="M0 0 C0.66 0.33 1.32 0.66 2 1 C-3.94 6.445 -3.94 6.445 -10 12 C-10.99 11.67 -11.98 11.34 -13 11 C-11.39801112 9.53927468 -9.79332884 8.08150284 -8.1875 6.625 C-7.29417969 5.81289063 -6.40085937 5.00078125 -5.48046875 4.1640625 C-3 2 -3 2 0 0 Z " fill="#251608" transform="translate(323,272)"/>
<path d="M0 0 C1 2 1 2 0.2578125 4.2421875 C-0.11601562 5.11101562 -0.48984375 5.97984375 -0.875 6.875 C-2.42383167 10.49045639 -2.42383167 10.49045639 -3.5078125 14.2578125 C-3.67023438 14.83273437 -3.83265625 15.40765625 -4 16 C-4.66 16.33 -5.32 16.66 -6 17 C-5.57664615 10.50857435 -3.08900201 5.66507011 0 0 Z " fill="#2C1C0B" transform="translate(226,397)"/>
<path d="M0 0 C0.33 0.99 0.66 1.98 1 3 C-2.3 6.3 -5.6 9.6 -9 13 C-9 8.86218946 -7.28490393 7.79080004 -4.5 4.8125 C-3.6646875 3.91144531 -2.829375 3.01039063 -1.96875 2.08203125 C-0.99421875 1.05142578 -0.99421875 1.05142578 0 0 Z " fill="#28190A" transform="translate(280,312)"/>
<path d="M0 0 C0.99 0.495 0.99 0.495 2 1 C2.88671875 4.01953125 2.88671875 4.01953125 3.6875 7.8125 C3.95949219 9.05644531 4.23148438 10.30039062 4.51171875 11.58203125 C4.94068161 14.58477125 5.04478192 16.2162522 4 19 C1.23918163 12.6381142 0.36823999 6.90767437 0 0 Z " fill="#7C6343" transform="translate(207,575)"/>
<path d="M0 0 C0.66 0.33 1.32 0.66 2 1 C-8.36893204 10 -8.36893204 10 -11 10 C-9.73459948 6.20379845 -8.21781569 5.51321812 -4.9375 3.3125 C-4.01839844 2.68988281 -3.09929687 2.06726563 -2.15234375 1.42578125 C-1.44207031 0.95527344 -0.73179687 0.48476563 0 0 Z " fill="#231508" transform="translate(337,262)"/>
<path d="M0 0 C5.95507399 0.3916035 10.62819824 1.37124595 16 4 C12.42355152 5.2380014 9.66305234 4.74926071 6 4 C6 3.34 6 2.68 6 2 C3.03 1.505 3.03 1.505 0 1 C0 0.67 0 0.34 0 0 Z " fill="#241507" transform="translate(594,220)"/>
<path d="M0 0 C0.66 0.33 1.32 0.66 2 1 C-1.86799384 3.67075765 -5.64969682 6.16320532 -10 8 C-10.99 7.67 -11.98 7.34 -13 7 C-10.88002166 5.80266012 -8.75486324 4.61701287 -6.625 3.4375 C-6.02171875 3.09525391 -5.4184375 2.75300781 -4.796875 2.40039062 C-3.23021759 1.53872905 -1.61709138 0.76281817 0 0 Z " fill="#8C724E" transform="translate(350,203)"/>
<path d="M0 0 C0.99 0.33 1.98 0.66 3 1 C3 1.66 3 2.32 3 3 C3.66 3.33 4.32 3.66 5 4 C1.37 4.33 -2.26 4.66 -6 5 C-5.67 4.34 -5.34 3.68 -5 3 C-4.01 3 -3.02 3 -2 3 C-2 2.34 -2 1.68 -2 1 C-1.34 0.67 -0.68 0.34 0 0 Z " fill="#34210E" transform="translate(751,576)"/>
<path d="M0 0 C0.71484375 1.671875 0.71484375 1.671875 1 4 C-0.43359375 6.578125 -0.43359375 6.578125 -2.4375 9.25 C-3.09621094 10.14203125 -3.75492188 11.0340625 -4.43359375 11.953125 C-4.95050781 12.62859375 -5.46742188 13.3040625 -6 14 C-6.33 13.34 -6.66 12.68 -7 12 C-5.56640625 9.1796875 -5.56640625 9.1796875 -3.5625 5.875 C-2.57443359 4.23144531 -2.57443359 4.23144531 -1.56640625 2.5546875 C-1.04949219 1.71164062 -0.53257812 0.86859375 0 0 Z " fill="#947A55" transform="translate(207,337)"/>
<path d="M0 0 C1.65 0 3.3 0 5 0 C5 0.66 5 1.32 5 2 C7.97 2.495 7.97 2.495 11 3 C7.79984144 4.06671952 6.11455706 3.94845472 2.8125 3.5625 C1.91144531 3.46066406 1.01039063 3.35882812 0.08203125 3.25390625 C-0.60503906 3.17011719 -1.29210937 3.08632813 -2 3 C-1.34 2.67 -0.68 2.34 0 2 C0 1.34 0 0.68 0 0 Z " fill="#34210E" transform="translate(692,595)"/>
<path d="M0 0 C0.66 0 1.32 0 2 0 C1.50269348 4.97306516 0.44697666 8.63799813 -2 13 C-2.33 13 -2.66 13 -3 13 C-2.52060632 8.28596212 -2.03165952 4.33420699 0 0 Z " fill="#2E1E0C" transform="translate(218,415)"/>
<path d="M0 0 C0.66 0.33 1.32 0.66 2 1 C-0.97 3.64 -3.94 6.28 -7 9 C-7.66 8.34 -8.32 7.68 -9 7 C-6.03 4.69 -3.06 2.38 0 0 Z " fill="#917651" transform="translate(305,230)"/>
<path d="M0 0 C1.93166016 0.01740234 1.93166016 0.01740234 3.90234375 0.03515625 C5.19269531 0.04417969 6.48304688 0.05320313 7.8125 0.0625 C8.81152344 0.07410156 9.81054688 0.08570313 10.83984375 0.09765625 C10.83984375 0.42765625 10.83984375 0.75765625 10.83984375 1.09765625 C8.7172952 1.4862919 6.59167547 1.85818834 4.46484375 2.22265625 C2.68980469 2.53589844 2.68980469 2.53589844 0.87890625 2.85546875 C-0.12398438 2.93539062 -1.126875 3.0153125 -2.16015625 3.09765625 C-2.82015625 2.43765625 -3.48015625 1.77765625 -4.16015625 1.09765625 C-3.16015625 0.09765625 -3.16015625 0.09765625 0 0 Z " fill="#281808" transform="translate(471.16015625,210.90234375)"/>
<path d="M0 0 C-6.02341941 2.68902652 -9.525862 3.27170568 -16 2 C-16 1.67 -16 1.34 -16 1 C-14.0852312 0.63571223 -12.16807707 0.28394694 -10.25 -0.0625 C-9.18265625 -0.25972656 -8.1153125 -0.45695313 -7.015625 -0.66015625 C-4.25228095 -0.97156937 -2.59053383 -0.8991416 0 0 Z " fill="#7D6341" transform="translate(458,170)"/>
<path d="M0 0 C-1 3 -1 3 -3.9375 4.75 C-5.4534375 5.36875 -5.4534375 5.36875 -7 6 C-7.66 5.67 -8.32 5.34 -9 5 C-7.87926138 4.16094435 -6.75325453 3.32892169 -5.625 2.5 C-4.99851562 2.0359375 -4.37203125 1.571875 -3.7265625 1.09375 C-2 0 -2 0 0 0 Z " fill="#8D734F" transform="translate(322,220)"/>
</svg>
